<svg viewBox="0 0 500 500" xmlns="http://www.w3.org/2000/svg">
  <g transform="matrix(1, 0, 0, 1, 95.379335, 345.288122)" id="36d36624-df5e-4e31-a5ae-c4874947b319"></g>
  <g transform="matrix(1, 0, 0, 1, 250, 250)">
    <path style="stroke: none; stroke-width: 1; stroke-dasharray: none; stroke-linecap: butt; stroke-dashoffset: 0; stroke-linejoin: miter; stroke-miterlimit: 4; fill: rgb(250,250,250); fill-rule: nonzero; opacity: 1;" vector-effect="non-scaling-stroke" transform=" translate(-238.59, -239.41)" d="M 459.373962 197.539062 C 473.122345 292.806 443.269958 370.334595 366.247711 428.147736 C 334.013519 452.342834 296.847961 464.851501 256.538635 468.222107 C 144.69278 477.574402 43.306267 400.155304 20.379595 289.525543 C 2.895563 205.158524 24.81389 130.942902 87.079277 70.936104 C 137.072784 22.756056 198.079132 3.32898 267.224243 11.731666 C 360.829437 23.106804 437.879852 95.690735 457.973022 190.258209 C 458.456726 192.534836 458.852478 194.830185 459.373962 197.539062 M 102.02494 401.487488 C 169.554321 457.730347 244.804016 471.082092 324.653961 434.372772 C 402.355469 398.651093 442.543457 334.062439 447.551575 249.152603 C 451.129669 188.488159 430.799042 135.187775 389.31778 90.444664 C 308.827454 3.625072 171.018341 2.804849 89.899689 89.0681 C 42.408989 139.570694 23.299984 199.930267 31.966564 268.619446 C 38.603439 321.22168 62.293495 365.296112 102.02494 401.487488 z" stroke-linecap="round"></path>
  </g>
  <g transform="matrix(1, 0, 0, 1, 251.501499, 252.187763)">
    <path style="stroke: none; stroke-width: 1; stroke-dasharray: none; stroke-linecap: butt; stroke-dashoffset: 0; stroke-linejoin: miter; stroke-miterlimit: 4; fill: rgb(1,1,1); fill-rule: nonzero; opacity: 1;" vector-effect="non-scaling-stroke" transform=" translate(-238.95, -239.88)" d="M 101.761185 401.248352 C 62.293495 365.296112 38.603439 321.22168 31.966564 268.619446 C 23.299984 199.930267 42.408989 139.570694 89.899689 89.0681 C 171.018341 2.804849 308.827454 3.625072 389.31778 90.444664 C 430.799042 135.187775 451.129669 188.488159 447.551575 249.152603 C 442.543457 334.062439 402.355469 398.651093 324.653961 434.372772 C 244.804016 471.082092 169.554321 457.730347 101.761185 401.248352 M 160.622528 154.873199 C 186.774048 179.095428 212.954056 203.287094 239.028305 227.592224 C 241.362823 229.768372 242.729187 229.549561 244.710999 227.357986 C 247.835754 223.902496 251.074234 220.524765 254.501862 217.372101 C 294.356506 180.714523 334.257019 144.106796 374.139648 107.479607 C 376.270782 105.522446 378.35083 103.509644 381.174042 100.843369 C 361.473022 100.843369 342.849335 100.731804 324.230347 100.977409 C 321.762329 101.009979 318.719635 102.245338 316.955872 103.963387 C 299.529633 120.937668 282.262634 138.07692 265.069458 155.288223 C 257.431702 162.934052 250.065125 170.8508 242.439713 178.785843 C 240.417419 176.90538 239.193405 175.824951 238.033218 174.67984 C 214.077591 151.035873 190.167831 127.345032 166.095261 103.820786 C 164.434662 102.198021 161.588303 101.027298 159.262833 100.973785 C 147.105057 100.694031 134.937424 100.84317 122.773209 100.84317 C 115.806778 100.84317 108.84034 100.84317 101.687851 100.84317 C 101.687851 185.816956 101.687851 270.376312 101.687851 355.088379 C 115.900352 355.088379 129.829529 355.088379 144.327545 355.088379 C 144.327545 283.626373 144.327545 212.378326 144.327545 139.99646 C 150.127228 145.290039 155.115143 149.842712 160.622528 154.873199 M 361.692719 129.191086 C 321.768433 166.218353 281.844147 203.245636 241.805984 240.37851 C 223.859512 223.060059 206.233429 206.050781 187.879013 188.338669 C 187.879013 201.803009 187.830307 213.962006 187.949158 226.119354 C 187.962006 227.435822 188.586609 229.136612 189.530975 229.995758 C 206.764755 245.674515 224.090973 261.251678 241.46991 276.915649 C 272.922729 248.693512 304.15918 220.665512 336.296539 191.829132 C 336.296539 248.42485 336.296539 303.534943 336.296539 358.761414 C 350.650177 358.761414 364.699829 358.761414 379.191833 358.761414 C 378.115723 277.600616 380.534851 196.72728 377.570496 114.466553 C 371.671112 119.939117 366.942657 124.32547 361.692719 129.191086 z" stroke-linecap="round"></path>
  </g>
  <g transform="matrix(1, 0, 0, 1, 254.431492, 237.627765)">
    <path style="stroke: none; stroke-width: 1; stroke-dasharray: none; stroke-linecap: butt; stroke-dashoffset: 0; stroke-linejoin: miter; stroke-miterlimit: 4; fill: rgb(253,253,253); fill-rule: nonzero; opacity: 1;" vector-effect="non-scaling-stroke" transform=" translate(-241.43, -227.95)" d="M 160.362793 154.634277 C 155.115143 149.842712 150.127228 145.290039 144.327545 139.99646 C 144.327545 212.378326 144.327545 283.626373 144.327545 355.088379 C 129.829529 355.088379 115.900352 355.088379 101.687851 355.088379 C 101.687851 270.376312 101.687851 185.816956 101.687851 100.84317 C 108.84034 100.84317 115.806778 100.84317 122.773209 100.84317 C 134.937424 100.84317 147.105057 100.694031 159.262833 100.973785 C 161.588303 101.027298 164.434662 102.198021 166.095261 103.820786 C 190.167831 127.345032 214.077591 151.035873 238.033218 174.67984 C 239.193405 175.824951 240.417419 176.90538 242.439713 178.785843 C 250.065125 170.8508 257.431702 162.934052 265.069458 155.288223 C 282.262634 138.07692 299.529633 120.937668 316.955872 103.963387 C 318.719635 102.245338 321.762329 101.009979 324.230347 100.977409 C 342.849335 100.731804 361.473022 100.843369 381.174042 100.843369 C 378.35083 103.509644 376.270782 105.522446 374.139648 107.479607 C 334.257019 144.106796 294.356506 180.714523 254.501862 217.372101 C 251.074234 220.524765 247.835754 223.902496 244.710999 227.357986 C 242.729187 229.549561 241.362823 229.768372 239.028305 227.592224 C 212.954056 203.287094 186.774048 179.095428 160.362793 154.634277 z" stroke-linecap="round"></path>
  </g>
  <g transform="matrix(1, 0, 0, 1, 296.531529, 246.307758)">
    <path style="stroke: none; stroke-width: 1; stroke-dasharray: none; stroke-linecap: butt; stroke-dashoffset: 0; stroke-linejoin: miter; stroke-miterlimit: 4; fill: rgb(253,253,253); fill-rule: nonzero; opacity: 1;" vector-effect="non-scaling-stroke" transform=" translate(-283.53, -236.61)" d="M 361.953461 128.951447 C 366.942657 124.32547 371.671112 119.939117 377.570496 114.466553 C 380.534851 196.72728 378.115723 277.600616 379.191833 358.761414 C 364.699829 358.761414 350.650177 358.761414 336.296539 358.761414 C 336.296539 303.534943 336.296539 248.42485 336.296539 191.829132 C 304.15918 220.665512 272.922729 248.693512 241.46991 276.915649 C 224.090973 261.251678 206.764755 245.674515 189.530975 229.995758 C 188.586609 229.136612 187.962006 227.435822 187.949158 226.119354 C 187.830307 213.962006 187.879013 201.803009 187.879013 188.338669 C 206.233429 206.050781 223.859512 223.060059 241.805984 240.37851 C 281.844147 203.245636 321.768433 166.218353 361.953461 128.951447 z" stroke-linecap="round"></path>
  </g>
  <g transform="matrix(5.5, 0, 0, 5.61, 251.501499, 252.187763)" id="ce841d4e-68d1-4e78-b94a-ee636f6ab419">
    <path style="stroke: rgb(0,0,0); stroke-width: 0; stroke-dasharray: none; stroke-linecap: butt; stroke-dashoffset: 0; stroke-linejoin: miter; stroke-miterlimit: 4; fill: rgb(1,1,1); fill-rule: nonzero; opacity: 1;" vector-effect="non-scaling-stroke" transform=" translate(-50, -50)" d="M 50 92.875 C 26.358 92.875 7.125 73.642 7.125 50 C 7.125 26.358000000000004 26.358 7.125 50 7.125 C 73.642 7.125 92.875 26.358 92.875 50 C 92.875 73.642 73.642 92.875 50 92.875 z M 50 9.125 C 27.461 9.125 9.125 27.461 9.125 50 C 9.125 72.538 27.461 90.875 50 90.875 C 72.538 90.875 90.875 72.538 90.875 50 C 90.875 27.461 72.538 9.125 50 9.125 z" stroke-linecap="round"></path>
  </g>
</svg>